<svg width="64" height="64" viewBox="0 0 64 64" fill="none" xmlns="http://www.w3.org/2000/svg">
  <defs>
    <linearGradient id="tealTop" x1="8" y1="10" x2="56" y2="10" gradientUnits="userSpaceOnUse">
      <stop stop-color="#1DD3D7"/>
      <stop offset="1" stop-color="#0B6C8E"/>
    </linearGradient>
    <linearGradient id="tealWaves" x1="12" y1="36" x2="52" y2="52" gradientUnits="userSpaceOnUse">
      <stop stop-color="#1DD3D7"/>
      <stop offset="1" stop-color="#0B4F72"/>
    </linearGradient>
    <linearGradient id="drop" x1="32" y1="14" x2="32" y2="36" gradientUnits="userSpaceOnUse">
      <stop stop-color="#F59A2E"/>
      <stop offset="1" stop-color="#C86A12"/>
    </linearGradient>
  </defs>
  <rect width="64" height="64" rx="16" fill="#F2FBFF"/>
  <path d="M16 24c0-6.5 5.6-12 16-12h0c10.4 0 16 5.5 16 12" stroke="url(#tealTop)" stroke-width="4.5" stroke-linecap="round"/>
  <path d="M24 28c3.3 1.8 6.7 2.7 10 2.7 3.3 0 6.7-.9 10-2.7" stroke="url(#tealWaves)" stroke-width="4.2" stroke-linecap="round"/>
  <path d="M18 34c4 2.3 9.3 3.5 14 3.5s10-.9 14-3.5" stroke="url(#tealWaves)" stroke-width="4.2" stroke-linecap="round"/>
  <path d="M20 40c4.6 3.5 10.4 5 12 5s7.4-1.5 12-5" stroke="url(#tealWaves)" stroke-width="4.2" stroke-linecap="round"/>
  <path d="M32 12c-3.5 4.8-6 8.8-6 12.5 0 3.5 2.7 6.5 6 6.5s6-3 6-6.5c0-3.7-2.5-7.7-6-12.5Z" fill="url(#drop)"/>
</svg>
