<svg xmlns="http://www.w3.org/2000/svg" width="64" height="64" fill="none" viewBox="0 0 64 64"><defs><linearGradient id="a" x1="8" x2="56" y1="10" y2="10" gradientUnits="userSpaceOnUse"><stop stop-color="#1dd3d7"/><stop offset="1" stop-color="#0b6c8e"/></linearGradient><linearGradient id="b" x1="12" x2="52" y1="36" y2="52" gradientUnits="userSpaceOnUse"><stop stop-color="#1dd3d7"/><stop offset="1" stop-color="#0b4f72"/></linearGradient><linearGradient id="c" x1="32" x2="32" y1="14" y2="36" gradientUnits="userSpaceOnUse"><stop stop-color="#f59a2e"/><stop offset="1" stop-color="#c86a12"/></linearGradient></defs><rect width="64" height="64" fill="#f2fbff" rx="16"/><path stroke="url(#a)" stroke-linecap="round" stroke-width="4.5" d="M16 24c0-6.5 5.6-12 16-12h0c10.4 0 16 5.5 16 12"/><path stroke="url(#b)" stroke-linecap="round" stroke-width="4.2" d="M24 28c3.3 1.8 6.7 2.7 10 2.7s6.7-.9 10-2.7"/><path stroke="url(#b)" stroke-linecap="round" stroke-width="4.2" d="M18 34c4 2.3 9.3 3.5 14 3.5s10-.9 14-3.5"/><path stroke="url(#b)" stroke-linecap="round" stroke-width="4.2" d="M20 40c4.6 3.5 10.4 5 12 5s7.4-1.5 12-5"/><path fill="url(#c)" d="M32 12c-3.5 4.8-6 8.8-6 12.5 0 3.5 2.7 6.5 6 6.5s6-3 6-6.5c0-3.7-2.5-7.7-6-12.5"/></svg>