<svg width="1024" height="1024" viewBox="0 0 1024 1024" fill="none" xmlns="http://www.w3.org/2000/svg" role="img" aria-labelledby="title desc">
  <title id="title">Liquid Nation logo</title>
  <desc id="desc">A warm orange droplet above layered turquoise waves encircled by an open aqua ring.</desc>
  <defs>
    <linearGradient id="ring" x1="192" y1="192" x2="832" y2="832" gradientUnits="userSpaceOnUse">
      <stop stop-color="#24D0D4" />
      <stop offset="1" stop-color="#0A5272" />
    </linearGradient>
    <linearGradient id="drop" x1="512" y1="220" x2="512" y2="560" gradientUnits="userSpaceOnUse">
      <stop stop-color="#F6A132" />
      <stop offset="1" stop-color="#C86A12" />
    </linearGradient>
    <linearGradient id="waveTop" x1="192" y1="500" x2="832" y2="628" gradientUnits="userSpaceOnUse">
      <stop stop-color="#21CDD3" />
      <stop offset="1" stop-color="#0CA0B8" />
    </linearGradient>
    <linearGradient id="waveMid" x1="192" y1="572" x2="832" y2="712" gradientUnits="userSpaceOnUse">
      <stop stop-color="#18B7C8" />
      <stop offset="1" stop-color="#0C7EA4" />
    </linearGradient>
    <linearGradient id="waveLow" x1="192" y1="652" x2="832" y2="812" gradientUnits="userSpaceOnUse">
      <stop stop-color="#0FA0B8" />
      <stop offset="1" stop-color="#0A5272" />
    </linearGradient>
  </defs>

  <circle cx="512" cy="512" r="360" stroke="url(#ring)" stroke-width="46" stroke-linecap="round" stroke-dasharray="760 220" />

  <path
    d="M512 220c-12 27.6-120 162.8-120 260 0 64.4 53.7 116.6 120 116.6s120-52.2 120-116.6c0-97.2-108-232.4-120-260Z"
    fill="url(#drop)"
  />

  <path
    d="M192 526c96 70 192 70 288 0s192-70 288 0v94H192Z"
    fill="url(#waveTop)"
  />
  <path
    d="M192 606c96 78 192 78 288 0s192-78 288 0v104H192Z"
    fill="url(#waveMid)"
  />
  <path
    d="M192 696c96 88 192 88 288 0s192-88 288 0v124H192Z"
    fill="url(#waveLow)"
  />
</svg>
